<?xml version="1.0"?>
<!-- Generated by SVGo (float) -->
<svg width="110.00px" height="110.00px"
     viewBox="0.00 0.00 110.00 110.00"
     xmlns="http://www.w3.org/2000/svg"
     xmlns:xlink="http://www.w3.org/1999/xlink">
<polygon points="20.36,25.00 20.36,45.00 37.68,55.00 55.00,45.00 72.32,55.00 89.64,45.00 89.64,25.00 72.32,15.00 55.00,25.00 37.68,15.00 20.36,25.00" style="stroke:#4B75B9; stroke-width:4.0; stroke-linecap:round; stroke-linejoin:round; fill:#FFFFFF; fill-opacity:1.0" />
<polyline points="20.36,25.00 37.68,35.00 55.00,25.00 72.32,35.00 89.64,25.00" style="stroke:#4B75B9; stroke-width:4.0; stroke-linecap:round; stroke-linejoin:round; fill-opacity:0.0" />
<line x1="37.68" y1="35.00" x2="37.68" y2="55.00" style="stroke:#4B75B9; stroke-width:4.0; stroke-linecap:round; stroke-linejoin:round; fill-opacity:0.0" />
<line x1="55.00" y1="25.00" x2="55.00" y2="45.00" style="stroke:#4B75B9; stroke-width:4.0; stroke-linecap:round; stroke-linejoin:round; fill-opacity:0.0" />
<line x1="72.32" y1="35.00" x2="72.32" y2="55.00" style="stroke:#4B75B9; stroke-width:4.0; stroke-linecap:round; stroke-linejoin:round; fill-opacity:0.0" />
<polygon points="20.36,65.00 20.36,85.00 37.68,95.00 55.00,85.00 72.32,95.00 89.64,85.00 89.64,65.00 72.32,55.00 55.00,65.00 37.68,55.00 20.36,65.00" style="stroke:#4B75B9; stroke-width:4.0; stroke-linecap:round; stroke-linejoin:round; fill:#FFFFFF; fill-opacity:1.0" />
<polyline points="20.36,65.00 37.68,75.00 55.00,65.00 72.32,75.00 89.64,65.00" style="stroke:#4B75B9; stroke-width:4.0; stroke-linecap:round; stroke-linejoin:round; fill-opacity:0.0" />
<line x1="37.68" y1="75.00" x2="37.68" y2="95.00" style="stroke:#4B75B9; stroke-width:4.0; stroke-linecap:round; stroke-linejoin:round; fill-opacity:0.0" />
<line x1="55.00" y1="65.00" x2="55.00" y2="85.00" style="stroke:#4B75B9; stroke-width:4.0; stroke-linecap:round; stroke-linejoin:round; fill-opacity:0.0" />
<line x1="72.32" y1="75.00" x2="72.32" y2="95.00" style="stroke:#4B75B9; stroke-width:4.0; stroke-linecap:round; stroke-linejoin:round; fill-opacity:0.0" />
</svg>
