<?xml version="1.0"?>
<!-- Generated by SVGo (float) -->
<svg width="200.00px" height="200.00px"
     viewBox="0.00 0.00 110.00 110.00"
     xmlns="http://www.w3.org/2000/svg"
     xmlns:xlink="http://www.w3.org/1999/xlink">
<polygon points="20.36,25.00 20.36,75.00 55.00,95.00 55.00,45.00 20.36,25.00" style="stroke:#4B75B9; stroke-width:4.0; stroke-linecap:round; stroke-linejoin:round; fill:#FFFFFF; fill-opacity:1.0" />
<polygon points="29.02,20.00 29.02,30.00 55.00,45.00 55.00,85.00 63.66,90.00 63.66,40.00 29.02,20.00" style="stroke:#4B75B9; stroke-width:4.0; stroke-linecap:round; stroke-linejoin:round; fill:#FFFFFF; fill-opacity:1.0" />
<polygon points="37.68,15.00 37.68,25.00 63.66,40.00 63.66,80.00 72.32,85.00 72.32,35.00 37.68,15.00" style="stroke:#4B75B9; stroke-width:4.0; stroke-linecap:round; stroke-linejoin:round; fill:#FFFFFF; fill-opacity:1.0" />
<polygon points="37.68,15.00 37.68,25.00 63.66,40.00 63.66,80.00 72.32,85.00 72.32,35.00 37.68,15.00" style="stroke:#4B75B9; stroke-width:4.0; stroke-linecap:round; stroke-linejoin:round; fill:#FFFFFF; fill-opacity:1.0" />
<polygon points="55.00,15.00 55.00,25.00 72.32,35.00 72.32,75.00 89.64,85.00 89.64,35.00 55.00,15.00" style="stroke:#4B75B9; stroke-width:4.0; stroke-linecap:round; stroke-linejoin:round; fill:#FFFFFF; fill-opacity:1.0" />
</svg>
