<?xml version="1.0"?>
<!-- Generated by SVGo (float) -->
<svg width="200.00px" height="200.00px"
     viewBox="0.00 0.00 110.00 110.00"
     xmlns="http://www.w3.org/2000/svg"
     xmlns:xlink="http://www.w3.org/1999/xlink">
<polygon points="29.02,30.00 20.36,45.00 29.02,50.00 29.02,60.00 20.36,65.00 29.02,80.00 37.68,75.00 46.34,80.00 46.34,90.00 63.66,90.00 63.66,80.00 72.32,75.00 80.98,80.00 89.64,65.00 80.98,60.00 80.98,50.00 89.64,45.00 80.98,30.00 72.32,35.00 63.66,30.00 63.66,20.00 46.34,20.00 46.34,30.00 37.68,35.00 29.02,30.00" style="stroke:#4B75B9; stroke-width:4.0; stroke-linecap:round; stroke-linejoin:round; fill:#FFFFFF; fill-opacity:1.0" />
<polygon points="46.34,50.00 46.34,60.00 55.00,65.00 63.66,60.00 63.66,50.00 55.00,45.00 46.34,50.00" style="stroke:#4B75B9; stroke-width:4.0; stroke-linecap:round; stroke-linejoin:round; fill:#FFFFFF; fill-opacity:1.0" />
</svg>
