<?xml version="1.0"?>
<!-- Generated by SVGo (float) -->
<svg width="110.00px" height="110.00px"
     viewBox="0.00 0.00 110.00 110.00"
     xmlns="http://www.w3.org/2000/svg"
     xmlns:xlink="http://www.w3.org/1999/xlink">
<polygon points="11.70,60.00 11.70,70.00 29.02,80.00 46.34,70.00 46.34,60.00 29.02,50.00 11.70,60.00" style="stroke:#4B75B9; stroke-width:4.0; stroke-linecap:round; stroke-linejoin:round; fill:#FFFFFF; fill-opacity:1.0" />
<polygon points="55.00,15.00 55.00,25.00 63.66,30.00 72.32,25.00 72.32,15.00 63.66,10.00 55.00,15.00" style="stroke:#4B75B9; stroke-width:4.0; stroke-linecap:round; stroke-linejoin:round; fill:#FFFFFF; fill-opacity:1.0" />
<polygon points="72.32,35.00 72.32,45.00 80.98,50.00 89.64,45.00 89.64,35.00 80.98,30.00 72.32,35.00" style="stroke:#4B75B9; stroke-width:4.0; stroke-linecap:round; stroke-linejoin:round; fill:#FFFFFF; fill-opacity:1.0" />
<polygon points="80.98,60.00 80.98,70.00 89.64,75.00 98.30,70.00 98.30,60.00 89.64,55.00 80.98,60.00" style="stroke:#4B75B9; stroke-width:4.0; stroke-linecap:round; stroke-linejoin:round; fill:#FFFFFF; fill-opacity:1.0" />
<polyline points="37.68,55.00 46.34,50.00 46.34,30.00 55.00,25.00" style="stroke:#4B75B9; stroke-width:4.0; stroke-linecap:round; stroke-linejoin:round; fill:#FFFFFF; fill-opacity:0.0" />
<line x1="46.34" y1="60.00" x2="72.32" y2="45.00" style="stroke:#4B75B9; stroke-width:4.0; stroke-linecap:round; stroke-linejoin:round; fill:#FFFFFF; fill-opacity:0.0" />
<polyline points="46.34,70.00 55.00,65.00 72.32,75.00 80.98,70.00" style="stroke:#4B75B9; stroke-width:4.0; stroke-linecap:round; stroke-linejoin:round; fill:#FFFFFF; fill-opacity:0.0" />
<text x="11.70" y="40.00" style="fill:#4B75B9; font-anchor:middle; font-weight:bold; font-family:Arial,sans-serif; font-size:18.0" >L4</text>
</svg>
