<?xml version="1.0"?>
<!-- Generated by SVGo (float) -->
<svg width="110.00px" height="110.00px"
     viewBox="0.00 0.00 110.00 110.00"
     xmlns="http://www.w3.org/2000/svg"
     xmlns:xlink="http://www.w3.org/1999/xlink">
<polygon points="37.68,25.00 37.68,45.00 46.34,50.00 46.34,30.00 63.66,30.00 63.66,50.00 72.32,45.00 72.32,25.00 63.66,20.00 46.34,20.00 37.68,25.00" style="stroke:#C8EFEA; stroke-width:4.0; stroke-linecap:round; stroke-linejoin:round; fill:#1DAF9E; fill-opacity:1.0" />
<polygon points="29.02,50.00 29.02,90.00 37.68,95.00 72.32,95.00 80.98,90.00 80.98,50.00 72.32,45.00 37.68,45.00 29.02,50.00" style="stroke:#C8EFEA; stroke-width:4.0; stroke-linecap:round; stroke-linejoin:round; fill:#1DAF9E; fill-opacity:1.0" />
<polygon points="46.34,60.00 46.34,70.00 55.00,75.00 63.66,70.00 63.66,60.00 55.00,55.00 46.34,60.00" style="stroke:#C8EFEA; stroke-width:4.0; stroke-linecap:round; stroke-linejoin:round; fill:#C8EFEA; fill-opacity:1.0" />
<line x1="55.00" y1="75.00" x2="55.00" y2="85.00" style="stroke:#C8EFEA; stroke-width:4.0; stroke-linecap:round; stroke-linejoin:round; fill-opacity:0.0" />
</svg>
