<?xml version="1.0"?>
<!-- Generated by SVGo (float) -->
<svg width="110.00px" height="110.00px"
     viewBox="0.00 0.00 110.00 110.00"
     xmlns="http://www.w3.org/2000/svg"
     xmlns:xlink="http://www.w3.org/1999/xlink">
<polygon points="37.68,45.00 37.68,55.00 55.00,65.00 72.32,55.00 72.32,45.00 55.00,35.00 37.68,45.00" style="stroke:#C8EFEA; stroke-width:4.0; stroke-linecap:round; stroke-linejoin:round; fill:#1DAF9E; fill-opacity:1.0" />
<polygon points="11.70,50.00 11.70,60.00 20.36,65.00 29.02,60.00 29.02,50.00 20.36,45.00 11.70,50.00" style="stroke:#C8EFEA; stroke-width:4.0; stroke-linecap:round; stroke-linejoin:round; fill:#1DAF9E; fill-opacity:1.0" />
<polygon points="29.02,70.00 29.02,80.00 37.68,85.00 46.34,80.00 46.34,70.00 37.68,65.00 29.02,70.00" style="stroke:#C8EFEA; stroke-width:4.0; stroke-linecap:round; stroke-linejoin:round; fill:#1DAF9E; fill-opacity:1.0" />
<polygon points="63.66,20.00 63.66,30.00 72.32,35.00 80.98,30.00 80.98,20.00 72.32,15.00 63.66,20.00" style="stroke:#C8EFEA; stroke-width:4.0; stroke-linecap:round; stroke-linejoin:round; fill:#1DAF9E; fill-opacity:1.0" />
<polygon points="80.98,40.00 80.98,50.00 89.64,55.00 98.30,50.00 98.30,40.00 89.64,35.00 80.98,40.00" style="stroke:#C8EFEA; stroke-width:4.0; stroke-linecap:round; stroke-linejoin:round; fill:#1DAF9E; fill-opacity:1.0" />
<line x1="29.02" y1="60.00" x2="37.68" y2="55.00" style="stroke:#C8EFEA; stroke-width:4.0; stroke-linecap:round; stroke-linejoin:round; fill-opacity:0.0" />
<line x1="37.68" y1="65.00" x2="46.34" y2="60.00" style="stroke:#C8EFEA; stroke-width:4.0; stroke-linecap:round; stroke-linejoin:round; fill-opacity:0.0" />
<line x1="63.66" y1="40.00" x2="72.32" y2="35.00" style="stroke:#C8EFEA; stroke-width:4.0; stroke-linecap:round; stroke-linejoin:round; fill-opacity:0.0" />
<line x1="72.32" y1="45.00" x2="80.98" y2="40.00" style="stroke:#C8EFEA; stroke-width:4.0; stroke-linecap:round; stroke-linejoin:round; fill-opacity:0.0" />
</svg>
