<?xml version="1.0"?>
<!-- Generated by SVGo (float) -->
<svg width="110.00px" height="110.00px"
     viewBox="0.00 0.00 110.00 110.00"
     xmlns="http://www.w3.org/2000/svg"
     xmlns:xlink="http://www.w3.org/1999/xlink">
<polygon points="11.70,40.00 11.70,50.00 20.36,55.00 29.02,50.00 29.02,40.00 20.36,35.00 11.70,40.00" style="stroke:#C8EFEA; stroke-width:4.0; stroke-linecap:round; stroke-linejoin:round; fill:#1DAF9E; fill-opacity:1.0" />
<polygon points="37.68,55.00 37.68,65.00 46.34,70.00 72.32,55.00 72.32,45.00 63.66,40.00 37.68,55.00" style="stroke:#C8EFEA; stroke-width:4.0; stroke-linecap:round; stroke-linejoin:round; fill:#1DAF9E; fill-opacity:1.0" />
<polygon points="80.98,60.00 80.98,70.00 89.64,75.00 98.30,70.00 98.30,60.00 89.64,55.00 80.98,60.00" style="stroke:#C8EFEA; stroke-width:4.0; stroke-linecap:round; stroke-linejoin:round; fill:#1DAF9E; fill-opacity:1.0" />
<polyline points="11.70,40.00 20.36,45.00 29.02,40.00" style="stroke:#C8EFEA; stroke-width:4.0; stroke-linecap:round; stroke-linejoin:round; fill-opacity:0.0" />
<polyline points="20.36,45.00 20.36,75.00 29.02,70.00" style="stroke:#C8EFEA; stroke-width:4.0; stroke-linecap:round; stroke-linejoin:round; fill-opacity:0.0" />
<polyline points="80.98,40.00 89.64,35.00 89.64,55.00" style="stroke:#C8EFEA; stroke-width:4.0; stroke-linecap:round; stroke-linejoin:round; fill-opacity:0.0" />
<polyline points="80.98,60.00 89.64,65.00 98.30,60.00" style="stroke:#C8EFEA; stroke-width:4.0; stroke-linecap:round; stroke-linejoin:round; fill-opacity:0.0" />
<line x1="89.64" y1="65.00" x2="89.64" y2="75.00" style="stroke:#C8EFEA; stroke-width:4.0; stroke-linecap:round; stroke-linejoin:round; fill-opacity:0.0" />
<polyline points="37.68,55.00 46.34,60.00 46.34,70.00" style="stroke:#C8EFEA; stroke-width:4.0; stroke-linecap:round; stroke-linejoin:round; fill-opacity:0.0" />
<polyline points="46.34,50.00 55.00,55.00 55.00,65.00" style="stroke:#C8EFEA; stroke-width:4.0; stroke-linecap:round; stroke-linejoin:round; fill-opacity:0.0" />
<polyline points="55.00,45.00 63.66,50.00 63.66,60.00" style="stroke:#C8EFEA; stroke-width:4.0; stroke-linecap:round; stroke-linejoin:round; fill-opacity:0.0" />
<line x1="46.34" y1="60.00" x2="72.32" y2="45.00" style="stroke:#C8EFEA; stroke-width:4.0; stroke-linecap:round; stroke-linejoin:round; fill-opacity:0.0" />
</svg>
